<svg width="80" height="80" viewBox="0 0 80 80" fill="none" xmlns="http://www.w3.org/2000/svg">
<circle cx="40" cy="40" r="40" fill="#C1C1C1"/>
<circle cx="40" cy="40" r="30" fill="black"/>
<path d="M32 31.3332V27.9999C32 27.0347 32.2794 26.0901 32.8044 25.2802C33.3295 24.4703 34.0777 23.8297 34.9588 23.4356C35.8399 23.0416 36.8162 22.911 37.7699 23.0596C38.7236 23.2083 39.6139 23.6298 40.3333 24.2732C41.0528 23.6298 41.943 23.2083 42.8967 23.0596C43.8504 22.911 44.8267 23.0416 45.7079 23.4356C46.589 23.8297 47.3372 24.4703 47.8622 25.2802C48.3873 26.0901 48.6666 27.0347 48.6667 27.9999V31.3332H51.1667C51.8297 31.3332 52.4656 31.5966 52.9344 32.0655C53.4033 32.5343 53.6667 33.1702 53.6667 33.8332V50.5082C53.6667 52.0531 53.053 53.5347 51.9606 54.6271C50.8682 55.7195 49.3866 56.3332 47.8417 56.3332H33.6667C31.8986 56.3332 30.2029 55.6308 28.9526 54.3806C27.7024 53.1304 27 51.4347 27 49.6666V33.8332C27 33.1702 27.2634 32.5343 27.7322 32.0655C28.2011 31.5966 28.837 31.3332 29.5 31.3332H32ZM43.0583 53.8332C42.3784 52.8579 42.0148 51.6971 42.0167 50.5082V33.8332H29.5V49.6666C29.5 50.2137 29.6078 50.7556 29.8172 51.2611C30.0266 51.7666 30.3335 52.2259 30.7204 52.6128C31.1073 52.9997 31.5666 53.3067 32.0722 53.5161C32.5777 53.7255 33.1195 53.8332 33.6667 53.8332H43.0583ZM39.5 31.3332V27.9999C39.5 27.3368 39.2366 26.701 38.7678 26.2321C38.2989 25.7633 37.663 25.4999 37 25.4999C36.337 25.4999 35.7011 25.7633 35.2322 26.2321C34.7634 26.701 34.5 27.3368 34.5 27.9999V31.3332H39.5ZM42 31.3332H46.1667V27.9999C46.1667 27.4853 46.008 26.9832 45.7121 26.5622C45.4162 26.1411 44.9975 25.8217 44.5133 25.6474C44.0291 25.4731 43.503 25.4525 43.0066 25.5884C42.5103 25.7242 42.0679 26.01 41.74 26.4066C41.9083 26.9066 42 27.4432 42 27.9999V31.3332ZM44.5167 50.5082C44.5167 51.3901 44.867 52.2358 45.4905 52.8594C46.1141 53.4829 46.9598 53.8332 47.8417 53.8332C48.7235 53.8332 49.5692 53.4829 50.1928 52.8594C50.8164 52.2358 51.1667 51.3901 51.1667 50.5082V33.8332H44.5167V50.5082Z" fill="white"/>
</svg>
