<svg width="48" height="46" viewBox="0 0 48 46" fill="none" xmlns="http://www.w3.org/2000/svg">
<path d="M16.299 3.85009C12.2404 5.65868 8.02737 7.53962 6.94655 7.9978L4.98343 8.84181L2.60121 12.3384C1.23364 14.364 0.152819 16.1726 0.0645892 16.6067C-0.244217 18.3912 0.527798 19.4281 2.95413 20.4409L4.60845 21.1402V28.5675C4.60845 36.6459 4.65257 36.9594 5.86573 38.1893C6.41717 38.7921 15.2181 42.8675 20.7767 45.1584C23.4456 46.2435 24.9455 46.1471 28.188 44.7484C37.386 40.7213 41.6211 38.768 42.0843 38.3098C42.8783 37.5141 43.4298 35.9948 43.4298 34.5721C43.4298 30.3771 43.4298 25.3845 43.4298 22.0084C43.4298 21.1644 43.4518 21.1403 45.04 20.4409C45.9002 20.0551 46.8046 19.5728 47.0472 19.3558C47.731 18.7047 48.106 17.6436 47.9736 16.7755C47.8413 16.0762 44.7974 11.205 43.3857 9.42056C43.0548 9.03473 41.7534 8.31129 39.7903 7.46727C38.0919 6.71972 33.8789 4.83879 30.4158 3.31957C26.9528 1.77623 24.0412 0.522278 23.9088 0.546391C23.7985 0.546391 20.3576 2.04149 16.299 3.85009ZM23.1368 9.68582C23.1368 13.3995 23.0706 16.4379 23.0045 16.4379C22.8942 16.4379 10.4978 10.988 8.57881 10.0958L7.8068 9.73405L8.35824 9.46879C9.52729 8.89004 22.806 2.98196 22.9824 2.95785C23.0706 2.93373 23.1368 5.97217 23.1368 9.68582ZM32.0701 6.06863C35.7096 7.68431 39.0403 9.17941 39.4594 9.37233L40.2314 9.70993L37.9154 10.7469C29.3129 14.6052 25.1441 16.4379 25.0338 16.4379C24.9676 16.4379 24.9014 13.3995 24.9014 9.66171C24.9014 4.33238 24.9676 2.90962 25.1882 3.00608C25.3205 3.07842 28.4306 4.45295 32.0701 6.06863ZM14.9755 14.991C18.9238 16.7514 22.2325 18.2706 22.3427 18.3671C22.5854 18.6323 18.4827 24.7333 17.9753 24.8298C17.6445 24.9021 15.1961 23.8652 5.51281 19.5246C3.63792 18.6806 2.00566 17.8124 1.87331 17.5954C1.58656 17.089 1.65273 16.9202 3.99084 13.4477L5.71133 10.8915L6.77009 11.3497C7.34359 11.5909 11.0493 13.2307 14.9755 14.991ZM44.29 13.8818C45.3929 15.5216 46.2973 17.0408 46.2973 17.2337C46.2973 17.4266 46.1649 17.6919 46.0326 17.8366C45.5032 18.2947 30.3717 24.9021 30.0188 24.8298C29.4232 24.7092 25.3867 18.7047 25.6955 18.3671C25.8058 18.2465 28.9821 16.7755 32.7319 15.1116C36.5037 13.4477 40.1212 11.832 40.7829 11.4944C41.4446 11.1809 42.0622 10.9157 42.1284 10.9157C42.2166 10.8915 43.1872 12.242 44.29 13.8818ZM23.1368 32.4982V43.9768L22.5413 43.808C21.8575 43.6392 8.55676 37.7793 7.58622 37.2247C7.2333 37.0318 6.81421 36.6942 6.6598 36.4771C6.26277 35.9225 6.26277 21.8878 6.6598 22.0566C6.79215 22.1289 8.75527 22.9971 11.0051 23.9858C13.255 24.9745 15.5931 26.0355 16.1887 26.3249C17.5121 26.9519 18.7474 26.8554 19.4973 26.0837C19.7841 25.7944 20.6664 24.5404 21.5046 23.2864C22.3207 22.0325 23.0265 21.0197 23.0706 21.0197C23.1148 21.0197 23.1368 26.1802 23.1368 32.4982ZM28.7615 26.2767C29.0924 26.566 29.6659 26.8072 29.9967 26.8072C30.3496 26.8072 33.0848 25.722 36.0626 24.3957C39.0624 23.0694 41.5549 21.9843 41.577 21.9843C41.6211 21.9843 41.6652 25.1192 41.6652 28.9534C41.6652 37.3453 41.974 36.5977 37.9154 38.4063C31.3643 41.3242 25.3426 43.9285 25.1441 43.9285C24.9676 43.9285 24.9014 40.3596 24.9014 32.4259V20.9473L26.5116 23.3347C27.416 24.661 28.4086 25.9873 28.7615 26.2767Z" fill="white"/>
</svg>
