<svg width="21" height="20" viewBox="0 0 21 20" fill="none" xmlns="http://www.w3.org/2000/svg">
<path d="M9.90366 0.0580311C9.4987 0.101091 0.470575 3.35209 0.172813 3.56739C-0.0653959 3.72886 -0.0534855 15.4626 0.184724 15.947C0.542038 16.7113 0.708784 16.7867 7.98608 19.4133C9.67736 20.0269 9.71309 20.0269 10.6659 19.9839C11.583 19.93 11.857 19.8439 15.7993 18.4014C20.0871 16.8297 20.4921 16.6252 20.8136 15.947C21.0519 15.4626 21.0638 3.72886 20.8375 3.56739C20.7541 3.51356 20.0633 3.24444 19.3129 2.96455C18.5626 2.69543 16.6092 1.97418 14.9656 1.37135C12.3572 0.413273 10.8446 -0.0496178 10.4396 0.00420761C10.3801 0.0149727 10.13 0.0365028 9.90366 0.0580311ZM11.8093 1.13452L12.3215 1.32829L11.0828 1.78041C10.4039 2.02801 8.45058 2.73849 6.74739 3.36285C5.04419 3.98722 3.60303 4.50393 3.54347 4.50393C3.29335 4.50393 1.81646 3.91187 1.88792 3.84727C1.99511 3.76116 9.45106 1.01611 9.84411 0.919224C10.261 0.811575 11.2853 0.929989 11.8093 1.13452ZM14.2152 2.01724C14.5011 2.12489 14.7989 2.32942 14.8822 2.4586C15.0132 2.65237 15.1204 2.68467 15.3825 2.63084C15.7279 2.57702 16.5735 2.81384 16.383 2.91073C16.3234 2.94302 15.2038 3.36285 13.8937 3.83651C12.5835 4.31017 10.6659 5.02065 9.62972 5.40819L7.74787 6.1079L7.2119 5.8926C6.91413 5.78496 6.56873 5.58042 6.44963 5.45124C6.29479 5.26824 6.12804 5.21442 5.78264 5.23595C5.52061 5.25748 5.21094 5.19289 5.09183 5.11753C4.90127 4.98835 5.11565 4.8807 7.23572 4.09487C12.2858 2.23254 13.4172 1.82347 13.5602 1.81271C13.6316 1.81271 13.9294 1.90959 14.2152 2.01724ZM18.7174 3.66427L19.2534 3.87957L18.5387 4.13793C18.1457 4.28864 16.1686 5.00988 14.1557 5.75266L10.4873 7.09827L9.78456 6.85068C9.39151 6.71074 9.06993 6.58156 9.06993 6.54926C9.06993 6.51697 11.0113 5.78496 13.3934 4.913C16.1567 3.9011 17.7884 3.35209 17.9432 3.39515C18.0742 3.42744 18.4196 3.55662 18.7174 3.66427ZM2.60255 5.11753L3.05514 5.3113L3.1147 7.41046L3.17425 9.50961L3.76977 9.63879C4.32956 9.76797 4.67497 9.73567 5.25858 9.52037C5.40151 9.46655 5.48488 9.55267 5.60398 9.83256C5.78264 10.2739 6.28288 10.6507 7.1047 10.9413C7.70022 11.1459 7.98608 11.1459 8.14091 10.9198C8.18855 10.8552 8.2362 9.99403 8.2362 8.9929C8.2362 8.00252 8.24811 7.19516 8.27193 7.19516C8.28384 7.19516 8.67688 7.3351 9.12948 7.50734L9.96321 7.80876L9.99894 13.4711C10.0228 18.2076 9.99894 19.1442 9.85602 19.1442C9.77264 19.1442 7.85506 18.466 5.60398 17.6371C2.67401 16.5606 1.43532 16.0547 1.24475 15.8609L0.970814 15.581V10.0479V4.50393L1.55443 4.71923C1.87601 4.82688 2.35243 5.00988 2.60255 5.11753ZM19.8132 15.8071C19.6464 16.0116 18.5745 16.453 15.6088 17.551C13.4172 18.3584 11.4878 19.0581 11.2972 19.0904L10.9756 19.1657L10.9994 13.4819L11.0352 7.80876L15.2634 6.25861C17.5859 5.39742 19.5988 4.66541 19.7298 4.62235C19.968 4.53623 19.968 4.57929 20.0037 10.0371C20.0276 15.2365 20.0156 15.5487 19.8132 15.8071ZM5.69927 6.24785L7.28336 6.81839V8.46542V10.1232L6.90222 9.91868C6.61637 9.76797 6.46154 9.5742 6.33052 9.20819C6.05658 8.43312 5.61589 8.29318 4.79407 8.72377C4.00798 9.13284 3.94843 9.03595 3.94843 7.24898C3.94843 6.38779 3.98416 5.68807 4.04371 5.68807C4.09135 5.68807 4.84171 5.93567 5.69927 6.24785Z" fill="white"/>
</svg>
