<svg width="56" height="56" viewBox="0 0 56 56" fill="none" xmlns="http://www.w3.org/2000/svg">
<path d="M11.6667 16.334H14C15.2377 16.334 16.4247 15.8423 17.2998 14.9671C18.175 14.092 18.6667 12.905 18.6667 11.6673C18.6667 11.0485 18.9125 10.455 19.3501 10.0174C19.7877 9.57982 20.3812 9.33398 21 9.33398H35C35.6188 9.33398 36.2123 9.57982 36.6499 10.0174C37.0875 10.455 37.3333 11.0485 37.3333 11.6673C37.3333 12.905 37.825 14.092 38.7002 14.9671C39.5753 15.8423 40.7623 16.334 42 16.334H44.3333C45.571 16.334 46.758 16.8256 47.6332 17.7008C48.5083 18.576 49 19.763 49 21.0007V42.0006C49 43.2383 48.5083 44.4253 47.6332 45.3005C46.758 46.1757 45.571 46.6673 44.3333 46.6673H11.6667C10.429 46.6673 9.242 46.1757 8.36683 45.3005C7.49167 44.4253 7 43.2383 7 42.0006V21.0007C7 19.763 7.49167 18.576 8.36683 17.7008C9.242 16.8256 10.429 16.334 11.6667 16.334" stroke="black" stroke-width="2" stroke-linecap="round" stroke-linejoin="round"/>
<path d="M28 37.334C31.866 37.334 35 34.2 35 30.334C35 26.468 31.866 23.334 28 23.334C24.134 23.334 21 26.468 21 30.334C21 34.2 24.134 37.334 28 37.334Z" stroke="black" stroke-width="2" stroke-linecap="round" stroke-linejoin="round"/>
</svg>
