<svg width="15" height="13" viewBox="0 0 15 13" fill="none" xmlns="http://www.w3.org/2000/svg">
<path d="M5.65923 0.0319185C5.42783 0.0556011 0.2689 1.84365 0.0987504 1.96206C-0.0373691 2.05087 -0.0305631 8.50443 0.105556 8.77086C0.309736 9.19123 0.40502 9.23267 4.56347 10.6773C5.52992 11.0148 5.55034 11.0148 6.09482 10.9911C6.61888 10.9615 6.77541 10.9142 9.02819 10.1208C11.4783 9.25636 11.7097 9.14386 11.8935 8.77086C12.0296 8.50443 12.0364 2.05087 11.9071 1.96206C11.8595 1.93246 11.4647 1.78444 11.036 1.63051C10.6072 1.48249 9.491 1.0858 8.55177 0.754243C7.06126 0.227301 6.19691 -0.0272894 5.9655 0.00231457C5.93147 0.00823498 5.78855 0.0200768 5.65923 0.0319185ZM6.74819 0.623987L7.04085 0.73056L6.33303 0.979229C5.94509 1.1154 4.82891 1.50617 3.85565 1.84957C2.8824 2.19297 2.05887 2.47716 2.02484 2.47716C1.88192 2.47716 1.03798 2.15153 1.07881 2.116C1.14006 2.06864 5.40061 0.55886 5.6252 0.505574C5.86341 0.446367 6.44873 0.511494 6.74819 0.623987ZM8.123 1.10948C8.28634 1.16869 8.45649 1.28118 8.50413 1.35223C8.579 1.45881 8.64025 1.47657 8.78998 1.44696C8.98736 1.41736 9.47058 1.54762 9.36169 1.6009C9.32766 1.61866 8.68789 1.84957 7.93924 2.11008C7.19058 2.37059 6.09482 2.76136 5.5027 2.9745L4.42735 3.35935L4.12108 3.24093C3.95093 3.18173 3.75356 3.06923 3.6855 2.99819C3.59702 2.89753 3.50174 2.86793 3.30437 2.87977C3.15463 2.89161 2.97768 2.85609 2.90962 2.81464C2.80072 2.7436 2.92323 2.68439 4.1347 2.25218C7.02043 1.2279 7.667 1.00291 7.74867 0.996991C7.78951 0.996991 7.95965 1.05028 8.123 1.10948ZM10.6957 2.01535L11.0019 2.13376L10.5936 2.27586C10.369 2.35875 9.23918 2.75544 8.08897 3.16396L5.99273 3.90405L5.59117 3.76787C5.36658 3.69091 5.18282 3.61986 5.18282 3.6021C5.18282 3.58433 6.29219 3.18173 7.65339 2.70215C9.23237 2.14561 10.1648 1.84365 10.2533 1.86733C10.3281 1.88509 10.5255 1.95614 10.6957 2.01535ZM1.48717 2.81464L1.7458 2.92122L1.77983 4.07575L1.81386 5.23029L2.15416 5.30133C2.47404 5.37238 2.67141 5.35462 3.0049 5.23621C3.08657 5.2066 3.13422 5.25397 3.20228 5.40791C3.30437 5.65065 3.59022 5.85788 4.05983 6.01774C4.40013 6.13023 4.56347 6.13023 4.65195 6.0059C4.67917 5.97037 4.7064 5.49672 4.7064 4.94609C4.7064 4.40139 4.7132 3.95734 4.72682 3.95734C4.73362 3.95734 4.95822 4.03431 5.21685 4.12904L5.69326 4.29482L5.71368 7.4091C5.72729 10.0142 5.71368 10.5293 5.63201 10.5293C5.58437 10.5293 4.48861 10.1563 3.20228 9.70041C1.52801 9.10834 0.820184 8.83007 0.711288 8.72349L0.554751 8.56956V5.52632V2.47716L0.888244 2.59558C1.07201 2.65478 1.34424 2.75544 1.48717 2.81464ZM11.3218 8.69389C11.2265 8.80638 10.614 9.04913 8.9193 9.65304C7.667 10.0971 6.56443 10.4819 6.45553 10.4997L6.27177 10.5411L6.28538 7.41502L6.3058 4.29482L8.72192 3.44224C10.0491 2.96858 11.1993 2.56597 11.2742 2.54229C11.4103 2.49493 11.4796 1.9443 11.5 4.94609C11.5136 7.80579 11.4375 8.55179 11.3218 8.69389ZM3.25672 3.43632L4.16192 3.75011V4.65598V5.56777L3.94413 5.45527C3.78078 5.37238 3.69231 5.26581 3.61744 5.06451C3.4609 4.63822 3.20908 4.56125 2.73947 4.79808C2.29028 5.02306 2.25625 4.96978 2.25625 3.98694C2.25625 3.51329 2.27666 3.12844 2.31069 3.12844C2.33792 3.12844 2.76669 3.26462 3.25672 3.43632Z" fill="white"/>
<circle cx="11" cy="9" r="4" fill="white"/>
<path d="M9 7L11 9M13 11L11 9M11 9L13 7L9 11" stroke="#4F7473" stroke-linecap="round"/>
</svg>
