<svg width="27" height="26" viewBox="0 0 27 26" fill="none" xmlns="http://www.w3.org/2000/svg">
<path d="M7.42852 25C7.8723 25 8.23205 24.6337 8.23205 24.1818C8.23205 23.7299 7.8723 23.3636 7.42852 23.3636C6.98475 23.3636 6.625 23.7299 6.625 24.1818C6.625 24.6337 6.98475 25 7.42852 25Z" stroke="black" stroke-width="1.5" stroke-linecap="round" stroke-linejoin="round"/>
<path d="M18.6775 25C19.1213 25 19.4811 24.6337 19.4811 24.1818C19.4811 23.7299 19.1213 23.3636 18.6775 23.3636C18.2338 23.3636 17.874 23.7299 17.874 24.1818C17.874 24.6337 18.2338 25 18.6775 25Z" stroke="black" stroke-width="1.5" stroke-linecap="round" stroke-linejoin="round"/>
<path d="M1 7H4.2141L6.62467 20.9091H19.4811" stroke="black" stroke-width="1.5" stroke-linecap="round" stroke-linejoin="round"/>
<path d="M6.62463 16.5455H19.1516C19.2445 16.5455 19.3346 16.5128 19.4064 16.4528C19.4783 16.3929 19.5276 16.3094 19.5458 16.2166L20.9921 8.85301C21.0038 8.79363 21.0024 8.73236 20.988 8.67361C20.9736 8.61486 20.9465 8.5601 20.9088 8.51328C20.8711 8.46646 20.8237 8.42875 20.7699 8.40287C20.7161 8.377 20.6574 8.36359 20.5979 8.36364H5.01758" stroke="black" stroke-width="1.5" stroke-linecap="round" stroke-linejoin="round"/>
<circle cx="19" cy="8" r="8" fill="#DB4444"/>
</svg>
