<svg width="32" height="32" viewBox="0 0 32 32" fill="none" xmlns="http://www.w3.org/2000/svg">
<rect width="32" height="32" rx="16" fill="#D9D9D9"/>
<path d="M11.25 26.25C11.6642 26.25 12 25.9142 12 25.5C12 25.0858 11.6642 24.75 11.25 24.75C10.8358 24.75 10.5 25.0858 10.5 25.5C10.5 25.9142 10.8358 26.25 11.25 26.25Z" stroke="black" stroke-width="1.5" stroke-linecap="round" stroke-linejoin="round"/>
<path d="M21.75 26.25C22.1642 26.25 22.5 25.9142 22.5 25.5C22.5 25.0858 22.1642 24.75 21.75 24.75C21.3358 24.75 21 25.0858 21 25.5C21 25.9142 21.3358 26.25 21.75 26.25Z" stroke="black" stroke-width="1.5" stroke-linecap="round" stroke-linejoin="round"/>
<path d="M5.25 9.75H8.25L10.5 22.5H22.5" stroke="black" stroke-width="1.5" stroke-linecap="round" stroke-linejoin="round"/>
<path d="M10.5 18.5H22.1925C22.2792 18.5001 22.3633 18.4701 22.4304 18.4151C22.4975 18.3601 22.5434 18.2836 22.5605 18.1986L23.9105 11.4486C23.9214 11.3942 23.92 11.338 23.9066 11.2841C23.8931 11.2303 23.8679 11.1801 23.8327 11.1372C23.7975 11.0943 23.7532 11.0597 23.703 11.036C23.6528 11.0122 23.598 11 23.5425 11H9" stroke="black" stroke-width="1.5" stroke-linecap="round" stroke-linejoin="round"/>
<circle cx="24" cy="9" r="8" fill="#DB4444"/>
<path d="M21.6608 12.124C22.6768 11.308 23.4728 10.64 24.0488 10.12C24.6248 9.592 25.1088 9.044 25.5008 8.476C25.9008 7.9 26.1008 7.336 26.1008 6.784C26.1008 6.264 25.9728 5.856 25.7168 5.56C25.4688 5.256 25.0648 5.104 24.5048 5.104C23.9608 5.104 23.5368 5.276 23.2328 5.62C22.9368 5.956 22.7768 6.408 22.7528 6.976H21.6968C21.7288 6.08 22.0008 5.388 22.5128 4.9C23.0248 4.412 23.6848 4.168 24.4928 4.168C25.3168 4.168 25.9688 4.396 26.4488 4.852C26.9368 5.308 27.1808 5.936 27.1808 6.736C27.1808 7.4 26.9808 8.048 26.5808 8.68C26.1888 9.304 25.7408 9.856 25.2368 10.336C24.7328 10.808 24.0888 11.36 23.3048 11.992H27.4328V12.904H21.6608V12.124Z" fill="#FAFAFA"/>
</svg>
