<svg width="22" height="20" viewBox="0 0 22 20" fill="none" xmlns="http://www.w3.org/2000/svg">
<path d="M7.42852 19C7.8723 19 8.23205 18.6337 8.23205 18.1818C8.23205 17.7299 7.8723 17.3636 7.42852 17.3636C6.98475 17.3636 6.625 17.7299 6.625 18.1818C6.625 18.6337 6.98475 19 7.42852 19Z" stroke="black" stroke-width="1.5" stroke-linecap="round" stroke-linejoin="round"/>
<path d="M18.6775 19C19.1213 19 19.4811 18.6337 19.4811 18.1818C19.4811 17.7299 19.1213 17.3636 18.6775 17.3636C18.2338 17.3636 17.874 17.7299 17.874 18.1818C17.874 18.6337 18.2338 19 18.6775 19Z" stroke="black" stroke-width="1.5" stroke-linecap="round" stroke-linejoin="round"/>
<path d="M1 1H4.2141L6.62467 14.9091H19.4811" stroke="black" stroke-width="1.5" stroke-linecap="round" stroke-linejoin="round"/>
<path d="M6.62463 10.5455H19.1516C19.2445 10.5455 19.3346 10.5128 19.4064 10.4528C19.4783 10.3929 19.5276 10.3094 19.5458 10.2166L20.9921 2.85301C21.0038 2.79363 21.0024 2.73236 20.988 2.67361C20.9736 2.61486 20.9465 2.5601 20.9088 2.51328C20.8711 2.46646 20.8237 2.42875 20.7699 2.40287C20.7161 2.377 20.6574 2.36359 20.5979 2.36364H5.01758" stroke="black" stroke-width="1.5" stroke-linecap="round" stroke-linejoin="round"/>
</svg>
