<svg width="33" height="32" viewBox="0 0 33 32" fill="none" xmlns="http://www.w3.org/2000/svg">
<path d="M9.75 28.25C10.1642 28.25 10.5 27.9142 10.5 27.5C10.5 27.0858 10.1642 26.75 9.75 26.75C9.33579 26.75 9 27.0858 9 27.5C9 27.9142 9.33579 28.25 9.75 28.25Z" stroke="black" stroke-width="1.5" stroke-linecap="round" stroke-linejoin="round"/>
<path d="M20.25 28.25C20.6642 28.25 21 27.9142 21 27.5C21 27.0858 20.6642 26.75 20.25 26.75C19.8358 26.75 19.5 27.0858 19.5 27.5C19.5 27.9142 19.8358 28.25 20.25 28.25Z" stroke="black" stroke-width="1.5" stroke-linecap="round" stroke-linejoin="round"/>
<path d="M3.75 11.75H6.75L9 24.5H21" stroke="black" stroke-width="1.5" stroke-linecap="round" stroke-linejoin="round"/>
<path d="M9 20.5H20.6925C20.7792 20.5001 20.8633 20.4701 20.9304 20.4151C20.9975 20.3601 21.0434 20.2836 21.0605 20.1986L22.4105 13.4486C22.4214 13.3942 22.42 13.338 22.4066 13.2841C22.3931 13.2303 22.3679 13.1801 22.3327 13.1372C22.2975 13.0943 22.2532 13.0597 22.203 13.036C22.1528 13.0122 22.098 13 22.0425 13H7.5" stroke="black" stroke-width="1.5" stroke-linecap="round" stroke-linejoin="round"/>
<circle cx="23.5" cy="10" r="8" fill="#DB4444"/>
<path d="M21.1608 13.124C22.1768 12.308 22.9728 11.64 23.5488 11.12C24.1248 10.592 24.6088 10.044 25.0008 9.476C25.4008 8.9 25.6008 8.336 25.6008 7.784C25.6008 7.264 25.4728 6.856 25.2168 6.56C24.9688 6.256 24.5648 6.104 24.0048 6.104C23.4608 6.104 23.0368 6.276 22.7328 6.62C22.4368 6.956 22.2768 7.408 22.2528 7.976H21.1968C21.2288 7.08 21.5008 6.388 22.0128 5.9C22.5248 5.412 23.1848 5.168 23.9928 5.168C24.8168 5.168 25.4688 5.396 25.9488 5.852C26.4368 6.308 26.6808 6.936 26.6808 7.736C26.6808 8.4 26.4808 9.048 26.0808 9.68C25.6888 10.304 25.2408 10.856 24.7368 11.336C24.2328 11.808 23.5888 12.36 22.8048 12.992H26.9328V13.904H21.1608V13.124Z" fill="#FAFAFA"/>
</svg>
