<svg width="58" height="58" viewBox="0 0 58 58" fill="none" xmlns="http://www.w3.org/2000/svg">
<circle cx="29" cy="29" r="29" fill="black"/>
<path d="M22.6667 32.3333C22.6667 30.4924 21.1743 29 19.3333 29C17.4924 29 16 30.4924 16 32.3333V35.6667C16 37.5076 17.4924 39 19.3333 39C21.1743 39 22.6667 37.5076 22.6667 35.6667V32.3333Z" stroke="white" stroke-width="2" stroke-linecap="round" stroke-linejoin="round"/>
<path d="M42.6667 32.3333C42.6667 30.4924 41.1743 29 39.3333 29C37.4924 29 36 30.4924 36 32.3333V35.6667C36 37.5076 37.4924 39 39.3333 39C41.1743 39 42.6667 37.5076 42.6667 35.6667V32.3333Z" stroke="white" stroke-width="2" stroke-linecap="round" stroke-linejoin="round"/>
<path d="M16 32.3333V27.3333C16 23.7971 17.4048 20.4057 19.9052 17.9052C22.4057 15.4048 25.7971 14 29.3333 14C32.8696 14 36.2609 15.4048 38.7614 17.9052C41.2619 20.4057 42.6667 23.7971 42.6667 27.3333V32.3333" stroke="white" stroke-width="2" stroke-linecap="round" stroke-linejoin="round"/>
<path d="M39.3335 39C39.3335 40.3261 38.2799 41.5979 36.4046 42.5355C34.5292 43.4732 31.9857 44 29.3335 44" stroke="white" stroke-width="2" stroke-linecap="round" stroke-linejoin="round"/>
</svg>
