<svg width="58" height="58" viewBox="0 0 58 58" fill="none" xmlns="http://www.w3.org/2000/svg">
<circle cx="29" cy="29" r="29" fill="black"/>
<path d="M21.1668 40.6667C23.0078 40.6667 24.5002 39.1743 24.5002 37.3333C24.5002 35.4924 23.0078 34 21.1668 34C19.3259 34 17.8335 35.4924 17.8335 37.3333C17.8335 39.1743 19.3259 40.6667 21.1668 40.6667Z" stroke="#FAFAFA" stroke-width="2" stroke-linecap="round" stroke-linejoin="round"/>
<path d="M37.8333 40.6667C39.6743 40.6667 41.1667 39.1743 41.1667 37.3333C41.1667 35.4924 39.6743 34 37.8333 34C35.9924 34 34.5 35.4924 34.5 37.3333C34.5 39.1743 35.9924 40.6667 37.8333 40.6667Z" stroke="#FAFAFA" stroke-width="2" stroke-linecap="round" stroke-linejoin="round"/>
<path d="M17.8335 37.334H16.5002C15.3956 37.334 14.5002 36.4386 14.5002 35.334V30.6673M12.8335 17.334H29.1668C30.2714 17.334 31.1668 18.2294 31.1668 19.334V37.334M24.5002 37.334H34.5002M41.1668 37.334H42.5002C43.6047 37.334 44.5002 36.4386 44.5002 35.334V27.334M44.5002 27.334H31.1668M44.5002 27.334L40.0828 19.9717C39.7213 19.3692 39.0703 19.0007 38.3678 19.0007H31.1668" stroke="#FAFAFA" stroke-width="2" stroke-linecap="round" stroke-linejoin="round"/>
<path d="M17.5 37H16.1667C15.0621 37 14.1667 36.1046 14.1667 35V30.3333M12.5 17H28.8333C29.9379 17 30.8333 17.8954 30.8333 19V37M24.5 37H34.1667M41.5 37H42.1667C43.2712 37 44.1667 36.1046 44.1667 35V27M44.1667 27H30.8333M44.1667 27L39.7493 19.6377C39.3878 19.0353 38.7368 18.6667 38.0343 18.6667H30.8333" stroke="#FAFAFA" stroke-width="2" stroke-linecap="round" stroke-linejoin="round"/>
<path d="M14.5 20.8184H21.1667" stroke="#FAFAFA" stroke-width="2" stroke-linecap="round" stroke-linejoin="round"/>
<path d="M11.3184 24.4551H17.985" stroke="#FAFAFA" stroke-width="2" stroke-linecap="round" stroke-linejoin="round"/>
<path d="M14.5 28.0918H21.1667" stroke="#FAFAFA" stroke-width="2" stroke-linecap="round" stroke-linejoin="round"/>
</svg>
