<svg width="80" height="80" viewBox="0 0 80 80" fill="none" xmlns="http://www.w3.org/2000/svg">
<circle cx="40" cy="40" r="40" fill="#C1C1C1"/>
<circle cx="40" cy="40" r="30" fill="black"/>
<path d="M40.2727 57.5455C49.8122 57.5455 57.5455 49.8122 57.5455 40.2727C57.5455 30.7333 49.8122 23 40.2727 23C30.7333 23 23 30.7333 23 40.2727C23 49.8122 30.7333 57.5455 40.2727 57.5455Z" stroke="white" stroke-width="2" stroke-linecap="round" stroke-linejoin="round"/>
<path d="M45.3638 34.8197C45.0344 34.2485 44.5559 33.7777 43.9794 33.4575C43.4029 33.1373 42.7502 32.9799 42.0911 33.0021H38.4547C37.4903 33.0021 36.5654 33.3851 35.8834 34.0668C35.2015 34.7486 34.8184 35.6732 34.8184 36.6374C34.8184 37.6015 35.2015 38.5262 35.8834 39.208C36.5654 39.8897 37.4903 40.2727 38.4547 40.2727H42.0911C43.0555 40.2727 43.9804 40.6557 44.6624 41.3375C45.3443 42.0193 45.7275 42.9439 45.7275 43.9081C45.7275 44.8722 45.3443 45.7969 44.6624 46.4786C43.9804 47.1604 43.0555 47.5434 42.0911 47.5434H38.4547C37.7956 47.5656 37.1429 47.4082 36.5664 47.088C35.9899 46.7678 35.5114 46.2969 35.182 45.7257" stroke="white" stroke-width="2.75" stroke-linecap="round" stroke-linejoin="round"/>
<path d="M40.2725 28.4545V32.3939M40.2725 48.1515V52.0909" stroke="white" stroke-width="2.75" stroke-linecap="round" stroke-linejoin="round"/>
</svg>
