<svg width="58" height="58" viewBox="0 0 58 58" fill="none" xmlns="http://www.w3.org/2000/svg">
<circle cx="29" cy="29" r="29" fill="black"/>
<path d="M17.0989 39.5997L17.0987 39.5995C16.226 38.9488 15.4254 37.9211 14.8426 36.7595C14.2597 35.5978 13.9165 34.3456 13.9165 33.2671V20.8671C13.9165 18.5078 15.6713 15.9623 17.891 15.1356L17.892 15.1353L26.2082 12.0187C26.2083 12.0187 26.2084 12.0187 26.2085 12.0187C26.9619 11.7371 27.9614 11.5879 28.9832 11.5879C30.005 11.5879 31.0044 11.7371 31.7579 12.0187C31.758 12.0187 31.7581 12.0187 31.7581 12.0187L40.0744 15.1353L40.0753 15.1356C42.295 15.9623 44.0498 18.5078 44.0498 20.8671V33.2504C44.0498 34.3375 43.7064 35.5897 43.1239 36.7488C42.5414 37.9078 41.7409 38.9318 40.8676 39.5829L40.8674 39.5831L33.7007 44.9331L33.7007 44.933L33.6945 44.9378C32.4118 45.9268 30.7239 46.4337 28.9998 46.4337C27.2772 46.4337 25.585 45.9274 24.2647 44.949C24.2645 44.9489 24.2644 44.9488 24.2642 44.9487L17.0989 39.5997ZM26.7417 13.4319L26.741 13.4322L18.4244 16.5489L18.4237 16.5491C17.5961 16.8607 16.8549 17.523 16.3239 18.2911C15.7928 19.0595 15.4332 19.9902 15.4332 20.8837V33.2671C15.4332 34.1615 15.7438 35.1897 16.2008 36.1015C16.6576 37.0131 17.2931 37.8727 18.0007 38.401L18.0007 38.4011L25.1671 43.7508C26.2291 44.545 27.6281 44.9254 29.0019 44.9254C30.3759 44.9254 31.7781 44.5449 32.8476 43.752L32.8489 43.7511L40.0156 38.4011L40.0165 38.4004C40.7313 37.8643 41.3667 37.0055 41.8221 36.0948C42.2774 35.1842 42.5832 34.1605 42.5832 33.2671V20.8671C42.5832 19.9809 42.2227 19.0542 41.6924 18.2869C41.1619 17.5194 40.4221 16.8545 39.5975 16.5343L39.5975 16.5343L39.592 16.5322L31.2753 13.4155L31.2753 13.4154L31.2662 13.4122C30.6281 13.187 29.8 13.0836 29.0006 13.0858C28.2019 13.088 27.375 13.1956 26.7417 13.4319ZM40.2497 14.6675L40.2497 14.6675L40.2497 14.6675Z" fill="#FAFAFA" stroke="#FAFAFA"/>
<path d="M26.413 30.0541L26.7666 30.4076L27.1201 30.0541L33.4035 23.7707C33.6915 23.4827 34.1749 23.4827 34.463 23.7707C34.7511 24.0588 34.7511 24.5422 34.463 24.8303L27.2963 31.997C27.1451 32.1483 26.9578 32.2172 26.7666 32.2172C26.5754 32.2172 26.3881 32.1483 26.2368 31.997L23.5535 29.3136C23.2654 29.0256 23.2654 28.5421 23.5535 28.2541C23.8415 27.966 24.3249 27.966 24.613 28.2541L26.413 30.0541Z" fill="#FAFAFA" stroke="#FAFAFA"/>
</svg>
