<svg width="80" height="80" viewBox="0 0 80 80" fill="none" xmlns="http://www.w3.org/2000/svg">
<circle cx="40" cy="40" r="40" fill="#C1C1C1"/>
<circle cx="40" cy="40" r="30" fill="black"/>
<path d="M40.8868 37.8362V38.3362L41.3868 38.3362C42.0506 38.3362 42.698 38.542 43.2399 38.9252C43.7819 39.3084 44.1918 39.8501 44.4131 40.4759C44.4317 40.5288 44.4397 40.5848 44.4368 40.6407C44.4338 40.6968 44.4198 40.7517 44.3956 40.8023C44.3714 40.8529 44.3374 40.8983 44.2957 40.9358C44.254 40.9733 44.2052 41.0022 44.1523 41.0209C44.0994 41.0396 44.0433 41.0477 43.9873 41.0447C43.9313 41.0417 43.8764 41.0277 43.8257 41.0035C43.7235 40.9546 43.6448 40.8671 43.6071 40.7603L43.607 40.76C43.4446 40.301 43.1439 39.9035 42.7463 39.6225C42.3486 39.3414 41.8736 39.1906 41.3867 39.1907L40.8868 39.1908V39.6907V43.3998V43.8998H41.3868C42.2379 43.8998 43.0541 44.2379 43.656 44.8397C44.2578 45.4415 44.5959 46.2577 44.5959 47.1088C44.5959 47.9599 44.2578 48.7761 43.656 49.378C43.0541 49.9798 42.2379 50.3179 41.3868 50.3179H40.8868V50.8179V51.2451H40.0323V50.8179V50.3179L39.5323 50.3179C38.8685 50.3179 38.2211 50.1121 37.6792 49.7289C37.1372 49.3457 36.7274 48.8039 36.506 48.1781L36.5062 48.1781L36.5012 48.165C36.4806 48.1117 36.471 48.0548 36.4728 47.9977C36.4746 47.9406 36.4879 47.8844 36.5118 47.8325C36.5357 47.7807 36.5697 47.7341 36.6119 47.6956C36.6541 47.6571 36.7036 47.6275 36.7575 47.6084C36.8114 47.5894 36.8685 47.5814 36.9255 47.5848C36.9826 47.5882 37.0383 47.6031 37.0895 47.6284C37.1407 47.6538 37.1863 47.6892 37.2236 47.7324C37.2609 47.7757 37.2891 47.826 37.3066 47.8804L37.3088 47.8875L37.3113 47.8945C37.6358 48.8092 38.5074 49.4633 39.5323 49.4633H40.0323V48.9633V45.2543V44.7543H39.5323C38.6812 44.7543 37.865 44.4162 37.2632 43.8144C36.6613 43.2126 36.3232 42.3963 36.3232 41.5452C36.3232 40.6942 36.6613 39.8779 37.2632 39.2761C37.865 38.6743 38.6812 38.3362 39.5323 38.3362H40.0323V37.8362V37.4089H40.8868V37.8362ZM40.0323 39.6907V39.1907H39.5323C38.9078 39.1907 38.3089 39.4388 37.8674 39.8803C37.4258 40.3219 37.1778 40.9208 37.1778 41.5452C37.1778 42.1697 37.4258 42.7686 37.8674 43.2101C38.3089 43.6517 38.9078 43.8998 39.5323 43.8998H40.0323V43.3998V39.6907ZM40.8868 48.9633V49.4633H41.3868C42.0113 49.4633 42.6102 49.2153 43.0517 48.7737C43.4933 48.3322 43.7413 47.7333 43.7413 47.1088C43.7413 46.4844 43.4933 45.8855 43.0517 45.4439C42.6102 45.0024 42.0113 44.7543 41.3868 44.7543H40.8868V45.2543V48.9633Z" fill="#FAFAFA" stroke="#FAFAFA"/>
<path d="M47.7285 32.2677L47.9591 32.5108C49.8571 34.5116 51.4448 36.7853 52.6695 39.2563L52.6705 39.2583C53.9463 41.8609 54.6627 44.5039 54.5457 46.8206L54.5457 46.8207C54.4313 49.0818 53.5306 51.0477 51.4808 52.4965L51.4808 52.4966C49.3719 53.9866 45.9057 55.0241 40.4944 55.0241C35.0788 55.0241 31.5986 54.0047 29.4721 52.5327L29.4719 52.5325C27.4084 51.1025 26.4966 49.1625 26.3691 46.9279L47.7285 32.2677ZM47.7285 32.2677L47.416 32.3886M47.7285 32.2677L47.416 32.3886M47.416 32.3886C43.0672 34.0703 37.8297 34.0703 33.4809 32.3904L33.3007 32.8568L32.9342 32.5167C31.1163 34.4761 29.4246 36.8803 28.2099 39.3834L28.2099 39.3835M47.416 32.3886L28.2099 39.3835M28.2099 39.3835C26.9394 42.0029 26.2374 44.6337 26.3691 46.9277L28.2099 39.3835ZM50.3018 25.8719C50.7422 26.0898 51.1232 26.2981 51.4365 26.4848L48.3047 31.0631L48.073 31.4017L48.3599 31.695C50.2983 33.6766 52.1287 36.2069 53.4394 38.8825C54.7525 41.5627 55.5269 44.353 55.4 46.864C55.2741 49.3543 54.2644 51.5768 51.9752 53.1941C49.6641 54.8269 45.9972 55.8786 40.4953 55.8786C34.9922 55.8786 31.3133 54.8456 28.987 53.2347C26.6835 51.6395 25.6581 49.4448 25.517 46.9762C25.3747 44.4857 26.1347 41.7058 27.4425 39.0106C28.7479 36.3205 30.5818 33.7503 32.5402 31.6898L32.8179 31.3977L32.5913 31.0643L29.4815 26.4885C29.6388 26.3958 29.8126 26.298 30.002 26.1971L30.002 26.1971L30.0037 26.1962C30.1943 26.0937 30.3998 25.9882 30.6203 25.8807L30.8162 25.7851C33.0624 24.7146 36.6235 23.5 40.4953 23.5C44.3974 23.5 47.9565 24.7334 50.1755 25.8106L50.3002 25.8711C50.3007 25.8714 50.3013 25.8717 50.3018 25.8719ZM49.6707 27.5523L50.2558 26.6969L49.2221 26.7713C46.6286 26.9581 43.5593 27.5653 40.6143 28.418C38.6304 28.9911 36.3977 28.9098 34.2928 28.5216C33.7636 28.4235 33.238 28.3067 32.717 28.1714L31.4316 27.8377L32.1777 28.9363L33.9581 31.5577L34.05 31.6929L34.204 31.7478C38.1282 33.1448 42.7586 33.1448 46.6835 31.7497L46.516 31.2786L46.9287 31.5609L49.6707 27.5523ZM34.4467 27.681L34.4471 27.6811C36.482 28.0559 38.5669 28.1203 40.3757 27.5964L40.3765 27.5962C42.3449 27.0227 44.347 26.5717 46.3711 26.2458L46.4358 25.2733C44.6943 24.749 42.6495 24.3545 40.4944 24.3545C37.2126 24.3545 34.1653 25.2684 32.039 26.1709L32.2344 26.6312L32.0918 27.1104C32.8486 27.3356 33.6411 27.5319 34.4467 27.681Z" fill="#FAFAFA" stroke="#FAFAFA"/>
</svg>
