<svg width="80" height="80" viewBox="0 0 80 80" fill="none" xmlns="http://www.w3.org/2000/svg">
<circle cx="40" cy="40" r="40" fill="#C1C1C1"/>
<circle cx="40" cy="40" r="30" fill="black"/>
<path d="M54.4824 25H47.8291L48.6624 33.3333C48.6624 33.3333 50.3291 35 52.8291 35C54.1414 35.0017 55.4092 34.524 56.3941 33.6567C56.4982 33.5594 56.5758 33.4372 56.6195 33.3016C56.6633 33.166 56.6717 33.0214 56.6441 32.8817L55.4674 25.8333C55.4281 25.6005 55.3076 25.3891 55.1273 25.2366C54.947 25.084 54.7186 25.0002 54.4824 25V25Z" stroke="white" stroke-width="2"/>
<path d="M47.8291 25L48.6624 33.3333C48.6624 33.3333 46.9958 35 44.4958 35C41.9958 35 40.3291 33.3333 40.3291 33.3333V25H47.8291Z" stroke="#FAFAFA" stroke-width="2"/>
<path d="M40.3294 25V33.3333C40.3294 33.3333 38.6628 35 36.1628 35C33.6628 35 31.9961 33.3333 31.9961 33.3333L32.8294 25H40.3294Z" stroke="#FAFAFA" stroke-width="2"/>
<path d="M32.8291 25H26.1774C25.9407 24.9999 25.7117 25.0838 25.5311 25.2367C25.3504 25.3896 25.2298 25.6016 25.1908 25.835L24.0158 32.8833C23.9883 33.0231 23.9968 33.1676 24.0406 33.3032C24.0843 33.4387 24.1618 33.5609 24.2658 33.6583C24.8124 34.1417 26.0341 35.0017 27.8291 35.0017C30.3291 35.0017 31.9958 33.335 31.9958 33.335L32.8291 25.0017V25Z" stroke="#FAFAFA" stroke-width="2"/>
<path d="M25.3408 35V51.6667C25.3408 52.5507 25.692 53.3986 26.3171 54.0237C26.9423 54.6488 27.7901 55 28.6742 55H52.0075C52.8915 55 53.7394 54.6488 54.3645 54.0237C54.9896 53.3986 55.3408 52.5507 55.3408 51.6667V35" stroke="#FAFAFA" stroke-width="2"/>
<path d="M45.0625 55V45C45.0625 44.1159 44.7113 43.2681 44.0862 42.6429C43.4611 42.0178 42.6132 41.6666 41.7292 41.6666H38.3958C37.5118 41.6666 36.6639 42.0178 36.0388 42.6429C35.4137 43.2681 35.0625 44.1159 35.0625 45V55" stroke="#FAFAFA" stroke-width="2" stroke-miterlimit="16"/>
</svg>
