<svg width="33" height="32" viewBox="0 0 33 32" fill="none" xmlns="http://www.w3.org/2000/svg">
<rect x="0.5" width="32" height="32" rx="16" fill="#DB4444"/>
<path d="M21.5 23V21.3333C21.5 20.4493 21.191 19.6014 20.6408 18.9763C20.0907 18.3512 19.3446 18 18.5667 18H13.4333C12.6554 18 11.9093 18.3512 11.3592 18.9763C10.809 19.6014 10.5 20.4493 10.5 21.3333V23" stroke="white" stroke-width="1.5" stroke-linecap="round" stroke-linejoin="round"/>
<path d="M16.5 15C18.1569 15 19.5 13.6569 19.5 12C19.5 10.3431 18.1569 9 16.5 9C14.8431 9 13.5 10.3431 13.5 12C13.5 13.6569 14.8431 15 16.5 15Z" stroke="white" stroke-width="1.5" stroke-linecap="round" stroke-linejoin="round"/>
</svg>
